<svg xmlns="http://www.w3.org/2000/svg" xmlns:xlink="http://www.w3.org/1999/xlink" version="1.1" id="Calque_1" x="0px" y="0px" style="enable-background:new 0 0 1308.89 925.48;" xml:space="preserve" viewBox="346.75 384.37 615.42 156.74">
<style type="text/css">
	.st0{opacity:0.25;enable-background:new    ;}
	.st1{fill:#010101;}
	.st2{fill:#F9B128;}
</style>
<g>
	<g>
		<g class="st0">
			<g>
				<g>
					<path class="st1" d="M502.79,406.46c9.07,15.48-3.18,36.61-3.18,36.61s-26.95-3.96-36.02-19.44       c-9.07-15.48-7.65-31.87,3.18-36.61C477.59,382.29,493.72,390.99,502.79,406.46"/>
				</g>
			</g>
		</g>
	</g>
	<g>
		<g class="st0">
			<g>
				<g>
					<path class="st1" d="M533.9,421.64c-7.81,15.98-34.38,21.55-34.38,21.55s-13.91-20.35-6.1-36.33       c7.81-15.98,23.2-25.63,34.38-21.55S541.71,405.66,533.9,421.64"/>
				</g>
			</g>
		</g>
		<path class="st2" d="M549.58,472.33v19.07c0,27.45-22.25,49.71-49.71,49.71c-27.45,0-49.71-22.25-49.71-49.71v-19.07    c0-27.45,22.25-49.71,49.71-49.71C527.33,422.62,549.58,444.87,549.58,472.33"/>
		<path d="M549.58,465.63v21.92c0,27.45-22.25,49.71-49.71,49.71c-27.45,0-49.71-22.25-49.71-49.71v-21.92    c0-27.45,22.25-49.71,49.71-49.71C527.33,415.93,549.58,438.18,549.58,465.63"/>
		<path class="st2" d="M549.58,465.63v18.07c0,27.45-22.25,49.71-49.71,49.71c-27.45,0-49.71-22.25-49.71-49.71v-18.07    c0-27.45,22.25-49.71,49.71-49.71C527.33,415.93,549.58,438.18,549.58,465.63"/>
		<path d="M549.58,465.63v14.22c0,27.45-22.25,49.71-49.71,49.71c-27.45,0-49.71-22.25-49.71-49.71v-14.22    c0-27.45,22.25-49.71,49.71-49.71C527.33,415.93,549.58,438.18,549.58,465.63"/>
		<path d="M480.67,511.56c-6.01-2.61-11.3-6.2-15.87-10.78c-4.57-4.57-8.16-9.86-10.78-15.87c-2.61-6.01-3.92-12.35-3.92-19.01    c0-6.79,1.31-13.26,3.92-19.4c2.61-6.14,6.2-11.49,10.78-16.07c4.57-4.57,9.86-8.13,15.87-10.68c6.01-2.55,12.35-3.82,19.01-3.82    c6.79,0,13.26,1.27,19.4,3.82c6.14,2.55,11.49,6.11,16.07,10.68c4.57,4.57,8.13,9.93,10.68,16.07c2.55,6.14,3.82,12.61,3.82,19.4    c0,6.66-1.28,13-3.82,19.01c-2.55,6.01-6.11,11.3-10.68,15.87c-4.57,4.57-9.93,8.17-16.07,10.78c-6.14,2.61-12.61,3.92-19.4,3.92    C493.02,515.48,486.68,514.17,480.67,511.56 M477.14,442.77c-3.01,3.01-5.36,6.53-7.06,10.58c-1.7,4.05-2.55,8.23-2.55,12.54    c0,4.31,0.85,8.43,2.55,12.34c1.7,3.92,4.05,7.38,7.06,10.39c3,3.01,6.43,5.36,10.29,7.05c3.85,1.7,7.94,2.55,12.25,2.55    c4.31,0,8.49-0.85,12.54-2.55c4.05-1.7,7.51-4.05,10.39-7.05c2.87-3,5.16-6.47,6.86-10.39c1.7-3.92,2.55-8.03,2.55-12.34    c0-4.31-0.85-8.49-2.55-12.54c-1.7-4.05-3.99-7.57-6.86-10.58c-2.88-3-6.31-5.32-10.29-6.96c-3.99-1.63-8.2-2.45-12.64-2.45    C490.92,433.37,483.41,436.5,477.14,442.77"/>
		<path d="M689.03,511.16c-5.68-2.87-10.62-6.79-14.8-11.76v10.92c0,2.3-1.87,4.17-4.17,4.17h-8.91c-2.3,0-4.17-1.87-4.17-4.17    V388.54c0-2.3,1.87-4.17,4.17-4.17h8.91c2.3,0,4.17,1.87,4.17,4.17v42.08c2.87-4.05,7.15-7.64,12.83-10.78    c6.92-3.82,15.14-5.31,24.66-4.48c3.05,0.27,6.09,0.85,9.01,1.78c8.41,2.65,15.44,6.88,21.09,12.7    c4.57,4.7,8.13,10.09,10.68,16.17c2.55,6.07,3.82,12.51,3.82,19.3c0,6.79-1.27,13.23-3.82,19.3c-2.55,6.07-6.11,11.46-10.68,16.17    c-4.44,4.57-9.73,8.17-15.87,10.78c-6.14,2.61-12.54,3.92-19.2,3.92C700.62,515.48,694.71,514.04,689.03,511.16 M694.32,435.42    c-3.99,1.64-7.42,3.95-10.29,6.96c-2.87,3.01-5.16,6.5-6.86,10.48c-1.7,3.99-2.55,8.13-2.55,12.45c0,8.75,3.14,16.4,9.4,22.93    c2.87,3.01,6.3,5.36,10.29,7.06c3.98,1.7,8.13,2.55,12.44,2.55c4.31,0,8.43-0.85,12.35-2.55c3.92-1.7,7.31-4.05,10.19-7.06    c6.27-6.53,9.41-14.17,9.41-22.93c0-4.31-0.85-8.46-2.55-12.45c-1.7-3.98-3.99-7.48-6.86-10.48c-2.88-3-6.27-5.32-10.19-6.96    c-3.92-1.63-8.04-2.45-12.35-2.45C702.45,432.97,698.31,433.79,694.32,435.42"/>
		<path d="M585.67,511.16c-5.68-2.87-10.62-6.79-14.8-11.76v10.92c0,2.3-1.87,4.17-4.17,4.17h-8.91c-2.3,0-4.17-1.87-4.17-4.17    V388.54c0-2.3,1.87-4.17,4.17-4.17h8.91c2.3,0,4.17,1.87,4.17,4.17v42.08c2.87-4.05,7.15-7.64,12.83-10.78    c6.92-3.82,15.14-5.31,24.66-4.48c3.05,0.27,6.09,0.85,9.01,1.78c8.41,2.65,15.44,6.88,21.09,12.7    c4.57,4.7,8.13,10.09,10.68,16.17c2.55,6.07,3.82,12.51,3.82,19.3c0,6.79-1.27,13.23-3.82,19.3c-2.55,6.07-6.11,11.46-10.68,16.17    c-4.44,4.57-9.73,8.17-15.87,10.78c-6.14,2.61-12.54,3.92-19.2,3.92C597.26,515.48,591.35,514.04,585.67,511.16 M590.96,435.42    c-3.99,1.64-7.42,3.95-10.29,6.96c-2.87,3.01-5.16,6.5-6.86,10.48c-1.7,3.99-2.55,8.13-2.55,12.45c0,8.75,3.14,16.4,9.41,22.93    c2.87,3.01,6.3,5.36,10.29,7.06c3.98,1.7,8.13,2.55,12.44,2.55c4.31,0,8.43-0.85,12.35-2.55c3.92-1.7,7.31-4.05,10.19-7.06    c6.27-6.53,9.41-14.17,9.41-22.93c0-4.31-0.85-8.46-2.55-12.45c-1.7-3.98-3.99-7.48-6.86-10.48c-2.88-3-6.27-5.32-10.19-6.96    c-3.92-1.63-8.04-2.45-12.35-2.45C599.09,432.97,594.94,433.79,590.96,435.42"/>
		<path d="M378.79,511.16c-5.68-2.87-10.62-6.79-14.79-11.76v10.92c0,2.3-1.87,4.17-4.17,4.17h-8.91c-2.3,0-4.17-1.87-4.17-4.17    V388.54c0-2.3,1.87-4.17,4.17-4.17h8.91c2.3,0,4.17,1.87,4.17,4.17v42.08c2.87-4.05,7.15-7.64,12.83-10.78    c6.92-3.82,15.14-5.31,24.66-4.48c3.05,0.27,6.09,0.85,9.01,1.78c8.41,2.65,15.44,6.88,21.09,12.7    c4.57,4.7,8.13,10.09,10.68,16.17c2.55,6.07,3.82,12.51,3.82,19.3c0,6.79-1.27,13.23-3.82,19.3c-2.55,6.07-6.11,11.46-10.68,16.17    c-4.44,4.57-9.73,8.17-15.87,10.78c-6.14,2.61-12.54,3.92-19.2,3.92C390.38,515.48,384.47,514.04,378.79,511.16 M384.08,435.42    c-3.99,1.64-7.42,3.95-10.29,6.96c-2.87,3.01-5.16,6.5-6.86,10.48c-1.7,3.99-2.55,8.13-2.55,12.45c0,8.75,3.14,16.4,9.41,22.93    c2.87,3.01,6.3,5.36,10.29,7.06c3.98,1.7,8.13,2.55,12.44,2.55c4.31,0,8.43-0.85,12.35-2.55c3.92-1.7,7.31-4.05,10.19-7.06    c6.27-6.53,9.41-14.17,9.41-22.93c0-4.31-0.85-8.46-2.55-12.45c-1.7-3.98-3.99-7.48-6.86-10.48c-2.88-3-6.27-5.32-10.19-6.96    c-3.92-1.63-8.04-2.45-12.35-2.45C392.21,432.97,388.07,433.79,384.08,435.42"/>
		<path d="M882.19,472.95c0,3.14,1.14,6.4,3.43,9.8c2.28,3.4,4.93,6.27,7.94,8.62c5.49,4.31,11.89,6.47,19.2,6.47    c10.9,0,19.9-4.94,27.02-14.81c0.81-1.13,2.33-1.49,3.53-0.78l10.37,6.14c1.31,0.78,1.74,2.5,0.88,3.76    c-4.81,7.1-10.57,12.66-17.3,16.67c-7.44,4.44-15.61,6.66-24.49,6.66c-6.66,0-13-1.27-19.01-3.82    c-6.01-2.55-11.3-6.11-15.87-10.68c-4.57-4.57-8.13-9.86-10.68-15.87c-2.55-6.01-3.82-12.34-3.82-19.01    c0-6.66,1.27-13.03,3.82-19.11c2.55-6.07,6.11-11.4,10.68-15.97c4.44-4.57,9.7-8.1,15.78-10.58c6.08-2.48,12.44-3.72,19.11-3.72    c6.66,0,13.03,1.24,19.11,3.72c6.08,2.48,11.33,6.01,15.78,10.58c9.67,9.93,14.5,21.43,14.5,34.49c0,1.64-0.09,3.34-0.28,5.1    c-0.14,1.34-1.31,2.34-2.66,2.34H882.19z M897.67,436.31c-4.7,2.35-8.46,5.46-11.27,9.31c-2.81,3.85-4.21,7.94-4.21,12.25h61.14    c0-4.31-1.4-8.39-4.21-12.25c-2.81-3.85-6.56-6.96-11.27-9.31c-4.7-2.35-9.73-3.53-15.09-3.53    C907.4,432.78,902.37,433.95,897.67,436.31"/>
		<path d="M779.32,472.95c0,3.14,1.14,6.4,3.43,9.8c2.28,3.4,4.93,6.27,7.94,8.62c5.49,4.31,11.89,6.47,19.2,6.47    c10.9,0,19.9-4.94,27.02-14.81c0.81-1.13,2.33-1.49,3.53-0.78l10.36,6.14c1.31,0.78,1.74,2.5,0.88,3.76    c-4.81,7.1-10.57,12.66-17.3,16.67c-7.44,4.44-15.61,6.66-24.49,6.66c-6.66,0-13-1.27-19.01-3.82    c-6.01-2.55-11.3-6.11-15.87-10.68c-4.57-4.57-8.13-9.86-10.68-15.87c-2.55-6.01-3.82-12.34-3.82-19.01    c0-6.66,1.27-13.03,3.82-19.11c2.55-6.07,6.11-11.4,10.68-15.97c4.44-4.57,9.7-8.1,15.78-10.58c6.08-2.48,12.44-3.72,19.11-3.72    c6.66,0,13.03,1.24,19.11,3.72c6.07,2.48,11.33,6.01,15.78,10.58c9.67,9.93,14.5,21.43,14.5,34.49c0,1.64-0.09,3.34-0.28,5.1    c-0.14,1.34-1.31,2.34-2.66,2.34H779.32z M794.8,436.31c-4.7,2.35-8.46,5.46-11.27,9.31c-2.81,3.85-4.21,7.94-4.21,12.25h61.14    c0-4.31-1.4-8.39-4.21-12.25c-2.81-3.85-6.57-6.96-11.27-9.31c-4.7-2.35-9.73-3.53-15.09-3.53    C804.53,432.78,799.5,433.95,794.8,436.31"/>
		<path class="st2" d="M499.87,422.44L499.87,422.44c23.89,0,43.26,19.37,43.26,43.26s-19.37,43.26-43.26,43.26    s-43.26-19.37-43.26-43.26S475.98,422.44,499.87,422.44"/>
		<path d="M491.67,462.11c0,3.85-3.12,6.98-6.98,6.98s-6.98-3.12-6.98-6.98c0-3.85,3.12-6.98,6.98-6.98S491.67,458.25,491.67,462.11    "/>
		<path d="M522.04,462.11c0,3.85-3.12,6.98-6.98,6.98c-3.85,0-6.98-3.12-6.98-6.98c0-3.85,3.12-6.98,6.98-6.98    C518.91,455.13,522.04,458.25,522.04,462.11"/>
		<path d="M499.8,484.46c-3.37,0-6.74-1.28-9.31-3.85c-0.88-0.88-0.88-2.31,0-3.2c0.88-0.88,2.31-0.88,3.2,0    c3.37,3.37,8.85,3.37,12.22,0c0.88-0.88,2.31-0.88,3.2,0c0.88,0.88,0.88,2.31,0,3.2C506.54,483.18,503.17,484.46,499.8,484.46"/>
	</g>
</g>
</svg>